<svg width="847" height="900" viewBox="0 0 847 900" fill="none" xmlns="http://www.w3.org/2000/svg">
<rect x="385.936" y="372.159" width="191.651" height="340.956" rx="19.5" transform="rotate(38.9318 385.936 372.159)" fill="white"/>
<rect x="385.936" y="372.159" width="191.651" height="340.956" rx="19.5" transform="rotate(38.9318 385.936 372.159)" stroke="black"/>
<rect x="697.188" y="140.375" width="191.651" height="340.956" rx="19.5" transform="rotate(38.9318 697.188 140.375)" fill="white"/>
<rect x="697.188" y="140.375" width="191.651" height="340.956" rx="19.5" transform="rotate(38.9318 697.188 140.375)" stroke="black"/>
<rect x="523.802" y="0.703145" width="191.651" height="340.956" rx="19.5" transform="rotate(38.9318 523.802 0.703145)" fill="white"/>
<rect x="523.802" y="0.703145" width="191.651" height="340.956" rx="19.5" transform="rotate(38.9318 523.802 0.703145)" stroke="black"/>
<rect x="557.516" y="513.637" width="191.651" height="340.956" rx="19.5" transform="rotate(38.9318 557.516 513.637)" fill="white"/>
<rect x="557.516" y="513.637" width="191.651" height="340.956" rx="19.5" transform="rotate(38.9318 557.516 513.637)" stroke="black"/>
<rect x="214.958" y="230.68" width="191.651" height="340.956" rx="19.5" transform="rotate(38.9318 214.958 230.68)" fill="white"/>
<rect x="214.958" y="230.68" width="191.651" height="340.956" rx="19.5" transform="rotate(38.9318 214.958 230.68)" stroke="black"/>
</svg>
